mtllib materials.mtl
v 0.09499985 -0.22 -0.005000234
v 0.09499988 -0.22 0.004999816
v 0.09499994 -1.192093E-07 0.004999816
v 0.09499994 -1.192093E-07 -0.005000174
v -0.2050002 -0.2199999 -0.004999638
v -0.2050001 0 -0.004999638
v -0.2050001 0 0.005000412
v -0.2050002 -0.2199999 0.005000353
v -0.05500013 -0.11 -0.004999936
v -0.2050001 0 -0.01499963
v -0.05500016 -0.11 -0.01499993
v -0.2050002 -0.2199999 -0.01499963
v 0.09499982 -0.22 -0.01500022
v 0.09499991 -1.192093E-07 -0.01500016
v -0.05500004 0.11 0.004999816
v -0.05500007 0.1099999 -0.005000055
v 0.09499991 -1.192093E-07 -0.005000353
v 0.09499991 -1.192093E-07 0.004999638
v -0.205 1.192093E-07 0.00500083
v -0.2050001 0 -0.004999161
vn 1 -3.676284E-07 -1.687796E-06
vn -1 3.685598E-07 1.315268E-06
vn -3.735277E-07 -1 1.529801E-07
vn 3.611071E-07 1 -1.131487E-06
vn 1.904702E-06 -1.071138E-07 1
vn 0.5913637 0.8064049 -6.648462E-07
vn -1.78879E-06 2.679786E-07 -1
vn -1 3.367268E-07 -1.748455E-07
vn -3.735277E-07 -1 -3.080047E-08
vn 1 -4.038021E-07 -3.177919E-06
vn -0.5913632 0.8064054 1.957216E-06
vn -1.916909E-06 9.300265E-08 -1
vn 0.5913639 0.8064048 -4.47095E-06
vn -0.5913629 0.8064055 -5.789042E-06
vn -7.341117E-07 -1 3.752435E-06
vn 3.80537E-06 3.617444E-06 1
vn -4.014653E-06 -2.810691E-06 -1
vt -0.003198187 0.1127344
vt -0.002384448 0.1121531
vt 0.01040274 0.1300553
vt 0.009589007 0.1306365
vt 0.003198137 0.1127344
vt -0.00958906 0.1306365
vt -0.0104028 0.1300553
vt 0.002384403 0.1121531
vt -0.04747655 0.06962426
vt -0.05756659 0.04137198
vt -0.05662485 0.04103564
vt -0.0465348 0.06928793
vt 0.04747647 0.0696242
vt 0.04653473 0.06928787
vt 0.05662475 0.04103558
vt 0.0575665 0.04137192
vt 0.05820657 0.08455791
vt 0.07162298 0.05772509
vt 0.09130037 0.06756379
vt 0.07788396 0.09439661
vt 0.07402802 0.01301992
vt 0.08468771 -0.002223789
vt 0.08550722 -0.001650719
vt 0.07484752 0.01359299
vt -0.07788395 0.09439659
vt -0.09130036 0.06756377
vt -0.07475346 0.07606083
vt -0.009589304 0.1306365
vt 0.00319793 0.1127344
vt 0.004011663 0.1133156
vt -0.008775571 0.1312177
vt -0.0575666 0.04137199
vt -0.04747656 0.06962427
vt -0.04841831 0.0699606
vt -0.05850834 0.04170833
vt -0.003198357 0.1127343
vt 0.0095888 0.1306365
vt 0.008775065 0.1312177
vt -0.004012092 0.1133155
vt 0.03208389 0.1219897
vt 0.03781816 0.1042946
vt 0.03876946 0.1046028
vt 0.03303519 0.122298
vt -0.07475347 0.07606085
vt -0.09130037 0.06756379
vt -0.07162298 0.05772509
vt -0.05820657 0.08455791
vt -0.07788396 0.09439661
vt 0.08066382 0.001784419
vt 0.08148332 0.002357482
vt 0.07082368 0.01760125
vt 0.07000418 0.01702818
vt 0.03285553 0.1163625
vt 0.03858974 0.09866734
vt 0.03954104 0.09897561
vt 0.03380682 0.1166708
vt -0.04653456 0.06928768
vt -0.04747631 0.06962401
vt -0.05756624 0.0413717
vt -0.0566245 0.04103537
vt 0.09443096 0.08589985
vt 0.07788404 0.0943969
vt 0.09130049 0.0675641
vt -0.09443092 0.08589981
vt -0.09130044 0.06756406
vt -0.07788401 0.09439687
o group1579076888
g mesh1579076888
usemtl mat3
f 4/4/1 3/3/1 2/2/1 1/1/1
f 8/8/2 7/7/2 6/6/2 5/5/2
f 2/12/3 8/11/3 5/10/3 1/9/3
f 6/16/4 7/15/4 3/14/4 4/13/4
f 3/20/5 7/19/5 8/18/5 2/17/5
f 11/24/6 10/23/6 6/22/6 9/21/6
f 9/27/7 6/26/7 4/25/7
f 10/31/8 12/30/8 5/29/8 6/28/8
f 12/35/9 13/34/9 1/33/9 5/32/9
f 13/39/10 14/38/10 4/37/10 1/36/10
f 14/43/11 11/42/11 9/41/11 4/40/11
f 14/48/12 13/47/12 12/46/12 10/45/12 11/44/12
o group917393452
g mesh917393452
usemtl mat3
f 18/52/13 17/51/13 16/50/13 15/49/13
f 16/56/14 20/55/14 19/54/14 15/53/14
f 19/60/15 20/59/15 17/58/15 18/57/15
f 19/63/16 18/62/16 15/61/16
f 17/66/17 20/65/17 16/64/17
